<svg width="79" height="66" xmlns="http://www.w3.org/2000/svg" viewBox="0 0 68.33 61.28"><defs><style>.cls-1{fill:#1d1d1d;}.cls-2{fill:#009e82;}</style></defs><title>Слой 1</title><g id="Layer_2" data-name="Layer 2"><g id="Слой_1" data-name="Слой 1"><path class="cls-1" d="M61.66,11.28H47.75V6.67A6.67,6.67,0,0,0,41.09,0H26.59a6.67,6.67,0,0,0-6.67,6.67v4.61H6.67A6.67,6.67,0,0,0,0,18V54.61a6.67,6.67,0,0,0,6.67,6.67h55a6.67,6.67,0,0,0,6.67-6.67V18A6.67,6.67,0,0,0,61.66,11.28ZM21.92,6.67A4.68,4.68,0,0,1,26.59,2h14.5a4.67,4.67,0,0,1,4.66,4.67v4.61H21.92ZM66.33,54.61a4.68,4.68,0,0,1-4.67,4.67h-55A4.68,4.68,0,0,1,2,54.61V18a4.67,4.67,0,0,1,4.67-4.67h55A4.67,4.67,0,0,1,66.33,18Z"/><path class="cls-2" d="M16.45,43.16a.91.91,0,0,1,0-1.29l.18-.18A.91.91,0,1,1,17.92,43l-.18.18a.91.91,0,0,1-1.29,0Zm7.72-22,.18-.19a.91.91,0,0,0-1.28-1.29l-.19.18a.92.92,0,0,0,0,1.29.91.91,0,0,0,1.29,0Zm.77,33.72v.26a.91.91,0,1,0,1.82,0v-.25a.91.91,0,1,0-1.82,0Zm9.5-.54a.91.91,0,0,0,0,1.82h.26a1,1,0,0,0,.65-.26.92.92,0,0,0-.64-1.56Zm1.82-36.23.19-.18a.92.92,0,0,0,0-1.29.91.91,0,0,0-1.29,0l-.18.18a.91.91,0,0,0,1.28,1.29ZM26,31.17a.92.92,0,0,0,.92-.91V28.54h1.72a.92.92,0,0,0,.91-.91.9.9,0,0,0-.9-.91H27V25a.91.91,0,1,0-1.82,0v1.72H23.42a.91.91,0,0,0-.91.91.9.9,0,0,0,.9.91h1.72v1.72a.9.9,0,0,0,.9.91Zm20.8-4.23a.91.91,0,0,0-.91-.91H44.2V24.31a.92.92,0,0,0-1.83,0V26H40.66a.92.92,0,0,0,0,1.83h1.71v1.72a.91.91,0,1,0,1.82,0V27.85h1.72a1,1,0,0,0,.65-.26,1,1,0,0,0,.27-.65ZM51,31.72V32a.93.93,0,0,0,.91.92.92.92,0,0,0,.91-.91v-.26a.9.9,0,0,0-.9-.91.92.92,0,0,0-.92.91ZM24.73,45.38V43.66a.91.91,0,0,0-1.82,0v1.72H21.19a.91.91,0,0,0,0,1.82H22.9v1.72a.9.9,0,0,0,.9.91.92.92,0,0,0,.92-.91V47.2h1.72a.91.91,0,0,0,.64-.26.89.89,0,0,0,.27-.64.91.91,0,0,0-.91-.92ZM50.29,19.63H50a.9.9,0,0,0-.92.9.92.92,0,0,0,.91.92h.26a.92.92,0,0,0,.91-.91.91.91,0,0,0-.91-.91Zm-14.5,4.88,2.74,9,9,2.8a.91.91,0,0,1,0,1.74l-9,2.74-2.79,9a1,1,0,0,1-.23.37.91.91,0,0,1-.64.27.9.9,0,0,1-.87-.65l-2.74-9-9-2.8a.91.91,0,0,1,0-1.74l9-2.74,2.8-9a.91.91,0,0,1,1.74,0Zm-.88,3.35-2.06,6.6a.9.9,0,0,1-.61.6l-6.61,2,6.6,2.06a.92.92,0,0,1,.6.6l2,6.62,2.06-6.6a.83.83,0,0,1,.23-.38.87.87,0,0,1,.37-.22l6.62-2-6.61-2.06a.91.91,0,0,1-.59-.6Zm-17.6,3.77v-.26a.91.91,0,0,0-1.82,0v.26a.91.91,0,0,0,.91.91.9.9,0,0,0,.91-.9Z"/><path class="cls-2" d="M44.39,49.83a.92.92,0,0,0,.92-.91V47.2H47a.92.92,0,0,0,.64-.27.88.88,0,0,0,.27-.64.92.92,0,0,0-.9-.92H45.32V43.66a.91.91,0,1,0-1.82,0v1.71H41.78a.91.91,0,0,0,0,1.82h1.72v1.72a.91.91,0,0,0,.9.92Z"/><path class="cls-2" d="M49.42,38.85v.26a.91.91,0,0,0,.91.91,1,1,0,0,0,.65-.26.93.93,0,0,0,.26-.65v-.25a.91.91,0,0,0-.9-.92.92.92,0,0,0-.92.91Z"/></g></g></svg>