<svg width="70" height="84" xmlns="http://www.w3.org/2000/svg" viewBox="0 0 21 25.23"><defs><style>.cls-1{fill:#1d1d1d;}.cls-2{fill:none;stroke:#009e82;stroke-miterlimit:10;stroke-width:0.71px;}</style></defs><title>Слой 3</title><g id="Layer_2" data-name="Layer 2"><g id="Слой_3" data-name="Слой 3"><polygon class="cls-1" points="8.11 3.86 12.89 4.82 12.89 5.44 13.47 5.44 13.47 4.34 7.53 3.15 7.53 5.44 8.11 5.44 8.11 3.86"/><path class="cls-1" d="M17.17,25.22H21l-.09-.75L19.34,12.91l-5.87-1.07V10l0-.06a4,4,0,0,0,1-2.48V7.38l1.07-1.07V2.43A2.43,2.43,0,0,0,13.18,0H7.82A2.43,2.43,0,0,0,5.39,2.43V6.31L6.47,7.38v.08a4.3,4.3,0,0,0,1,2.42l0,.06v1.9L1.67,12.91,0,25.22H3.78v-.57H.66l.11-.84h0l0-.42,1.36-10,1.07-.19h0l2.67-.49,2.47,3-.16.14h1l1.23-1.65,1.24,1.65h1l-.16-.13,2.47-3,3.74.68,0,.15,1.39,10.24h0l.12.86H17.19ZM7,7.25V7.13L6,6.06V2.43A1.85,1.85,0,0,1,7.82.58h5.36A1.86,1.86,0,0,1,15,2.43V6.06L14,7.14v.12a3.46,3.46,0,0,1-3.46,3.46h-.11A3.56,3.56,0,0,1,7,7.25Zm1.84,8.12L6.58,12.6l1.19-.22,2.31,1.39Zm-.77-3.45V10.5l.33.21a3.93,3.93,0,0,0,1.94.59h.12a4.05,4.05,0,0,0,2.07-.57l.32-.19v1.38L10.5,13.35Zm4,3.45-1.19-1.6,2.31-1.39,1.18.22Z"/><rect class="cls-2" x="4.06" y="16.13" width="12.89" height="8.74"/><line class="cls-2" x1="8.42" y1="20.5" x2="12.58" y2="20.5"/></g></g></svg>