<svg width="83" height="64" xmlns="http://www.w3.org/2000/svg" viewBox="0 0 69.68 52.39">
    <defs>
        <style>.cls-1{fill:#009e82;}.cls-2{fill:#1d1d1d;}</style>
    </defs>
    <title>Слой 2</title>
    <g id="Layer_2" data-name="Layer 2">
        <g id="Слой_2" data-name="Слой 2">
            <path class="cls-1" d="M51.88,9.37a3.2,3.2,0,1,1,0,6.4,3.18,3.18,0,0,1-.91-.13l-.17-.05-5.58,7.68.1.15a3.15,3.15,0,0,1,.56,1.81A3.2,3.2,0,1,1,39.71,24l.06-.16-4.57-4L35,20a3.18,3.18,0,0,1-2.94.1L31.94,20l-4.86,4.85.08.16a3.13,3.13,0,0,1,.31,1.38,3.2,3.2,0,0,1-5.42,2.3l-.13-.12-3.7,1.85,0,.17a2.69,2.69,0,0,1,0,.4,3.21,3.21,0,1,1-1-2.3l.12.12L21.11,27l0-.18c0-.13,0-.26,0-.39a3.2,3.2,0,0,1,3.2-3.2,3.13,3.13,0,0,1,1.38.31l.16.07,4.85-4.85-.07-.16a3.11,3.11,0,0,1-.32-1.38,3.21,3.21,0,1,1,6.18,1.19l-.07.16,4.58,4,.15-.08a3.25,3.25,0,0,1,2.48-.28l.17.05,5.59-7.68-.1-.15a3.16,3.16,0,0,1-.57-1.81A3.21,3.21,0,0,1,51.88,9.37Zm1.41,3.2a1.4,1.4,0,1,0-1.4,1.4A1.4,1.4,0,0,0,53.29,12.57Zm-9.2,12.66a1.41,1.41,0,1,0-1.41,1.4A1.4,1.4,0,0,0,44.09,25.23Zm-9.21-8.06a1.4,1.4,0,1,0-1.4,1.4A1.4,1.4,0,0,0,34.88,17.17Zm-9.2,9.21a1.41,1.41,0,1,0-1.41,1.4A1.41,1.41,0,0,0,25.68,26.38ZM16.47,31a1.4,1.4,0,1,0-1.4,1.4A1.4,1.4,0,0,0,16.47,31Z"/>
            <path class="cls-2" d="M66.09,0H3.6A3.6,3.6,0,0,0,0,3.6v39a3.6,3.6,0,0,0,3.6,3.6h19v4.3H19a.94.94,0,1,0,0,1.88H50.59a.94.94,0,1,0,0-1.88H47v-4.3H66.09a3.6,3.6,0,0,0,3.59-3.6V3.6A3.6,3.6,0,0,0,66.09,0Zm-21,50.51H24.5v-4.3H45.09Zm22.71-7.9a1.72,1.72,0,0,1-1.71,1.71H3.6a1.71,1.71,0,0,1-1.71-1.71V41.55H67.8Zm0-3h-15V21.27a.9.9,0,0,0-1.8,0V39.66H43.58V33.93a.9.9,0,0,0-1.8,0v5.73h-7.4V25.88a.91.91,0,0,0-1.81,0V39.66h-7.4V35.08a.9.9,0,1,0-1.8,0v4.58H16a1,1,0,0,0-.26-.62,1,1,0,0,0-1.28,0,1,1,0,0,0-.26.62H1.89V3.6A1.7,1.7,0,0,1,3.6,1.89H66.09A1.71,1.71,0,0,1,67.8,3.6Z"/>
        </g>
    </g>
</svg>